{"title":"Almost Famous (Extended Cut) (2000) BDRip-AVC MediaClub","uid":10861373,"size":5209390909,"categoryP":"video","categoryS":"hd___movies","magnet":"?xt=urn:btih:fd23bd5ac270d8ac88b2629f8c4c6f6ad9261ad7&amp;dn=Almost+Famous+%28Extended+Cut%29+%282000%29+BDRip-AVC+MediaClub&amp;tr=udp%3A%2F%2Ftracker.openbittorrent.com%3A80&amp;tr=udp%3A%2F%2Fopen.demonii.com%3A1337&amp;tr=udp%3A%2F%2Ftracker.coppersurfer.tk%3A6969&amp;tr=udp%3A%2F%2Fexodus.desync.com%3A6969","seeders":0,"leechers":1,"uploader":"neni69","files":1,"time":1408885855,"description":" &lt;a href=&quot; http://mediaclub.tv/&quot; rel=&quot;nofollow&quot; target=&quot;_NEW&quot;&gt; http://mediaclub.tv/&lt;/a&gt;   Welcome to MediaClub\n\n===================================================================\n                               (RUS, ENG)\n\nUnique ID                      : 240227375318573460603373362090557113924 (0xB4BA1C0C0AF7AD4ABE62621A794D0644)\nComplete name                  : E:MCPocti.znamenit.2000.x264.BDRip(AVC)-MediaClubPocti.znamenit.2000.x264.BDRip(AVC)-MediaClub.mkv\nFormat                         : Matroska\nFormat version                 : Version 4 / Version 2\nFile size                      : 4.85 GiB\nDuration                       : 2h 41mn\nOverall bit rate               : 4 301 Kbps\nMovie name                     : -= Release MediaClub =-\nEncoded date                   : UTC 2014-08-22 18:52:52\nWriting application            : mkvmerge v6.4.1 ('Omega Point') built on Sep 16 2013 22:05:10\nWriting library                : libebml v1.3.0 + libmatroska v1.4.1\n\nVideo\nID                             : 1\nFormat                         : AVC\nFormat/Info                    : Advanced Video Codec\nFormat profile                 : &lt;a class=&quot;__cf_email__&quot; href=&quot;/cdn-cgi/l/email-protection&quot; data-cfemail=&quot;d890b1bfb09894ecf6e9&quot;&gt;[email&amp;#160;protected]&lt;/a&gt;&lt;script cf-hash='f9e31' type=&quot;text/javascript&quot;&gt;\n/* &lt;![CDATA[ */!function(){try{var t=&quot;currentScript&quot;in document?document.currentScript:function(){for(var t=document.getElementsByTagName(&quot;script&quot;),e=t.length;e--;)if(t[e].getAttribute(&quot;cf-hash&quot;))return t[e]}();if(t&amp;&amp;t.previousSibling){var e,r,n,i,c=t.previousSibling,a=c.getAttribute(&quot;data-cfemail&quot;);if(a){for(e=&quot;&quot;,r=parseInt(a.substr(0,2),16),n=2;a.length-n;n+=2)i=parseInt(a.substr(n,2),16)^r,e+=String.fromCharCode(i);e=document.createTextNode(e),c.parentNode.replaceChild(e,c)}}}catch(u){}}();/* ]]&gt; */&lt;/script&gt;\nFormat settings, CABAC         : Yes\nFormat settings, ReFrames      : 11 frames\nCodec ID                       : V_MPEG4/ISO/AVC\nDuration                       : 2h 41mn\nBit rate                       : 3 149 Kbps\nWidth                          : 1 024 pixels\nHeight                         : 556 pixels\nDisplay aspect ratio           : 1.85:1\nFrame rate                     : 23.976 fps\nColor space                    : YUV\nChroma subsampling             : 4:2:0\nBit depth                      : 8 bits\nScan type                      : Progressive\nBits/(Pixel*Frame)             : 0.231\nStream size                    : 3.46 GiB (71%)\nTitle                          : Pocti.znamenit.2000.x264.BDRip(AVC)-neni\nWriting library                : x264 core 142 r2409+42 04be48a tMod [8-bit@4:2:0 X86_64]\nEncoding settings              : cabac=1 / ref=11 / deblock=1:-2:-2 / analyse=0x3:0x133 / me=umh / subme=11 / psy=1 / fade_compensate=0.00 / psy_rd=1.05:0.15 / mixed_ref=1 / me_range=48 / chroma_me=1 / trellis=2 / 8x8dct=1 / cqm=0 / deadzone=21,11 / fast_pskip=0 / chroma_qp_offset=-3 / threads=9 / lookahead_threads=1 / sliced_threads=0 / nr=0 / decimate=0 / interlaced=0 / bluray_compat=0 / constrained_intra=0 / fgo=0 / bframes=8 / b_pyramid=2 / b_adapt=2 / b_bias=0 / direct=3 / weightb=1 / open_gop=0 / weightp=2 / keyint=250 / keyint_min=23 / scenecut=40 / intra_refresh=0 / rc=2pass / mbtree=0 / bitrate=3149 / ratetol=1.0 / qcomp=0.60 / qpmin=0:0:0 / qpmax=69:69:69 / qpstep=4 / cplxblur=20.0 / qblur=0.5 / ip_ratio=1.40 / pb_ratio=1.30 / aq=2:1.00 / aq-sensitivity=10.00 / aq-factor=1.00:1.00:1.00 / aq2=0 / aq3=0\nLanguage                       : English\nDefault                        : Yes\nForced                         : No\n\nAudio #1\nID                             : 2\nFormat                         : AC-3\nFormat/Info                    : Audio Coding 3\nMode extension                 : CM (complete main)\nFormat settings, Endianness    : Big\nCodec ID                       : A_AC3\nDuration                       : 2h 41mn\nBit rate mode                  : Constant\nBit rate                       : 256 Kbps\nChannel(s)                     : 2 channels\nChannel positions              : Front: L R\nSampling rate                  : 48.0 KHz\nBit depth                      : 16 bits\nCompression mode               : Lossy\nStream size                    : 296 MiB (6%)\nTitle                          : P2 (SONY TV)\nLanguage                       : Russian\nDefault                        : Yes\nForced                         : No\n\nAudio #2\nID                             : 3\nFormat                         : AC-3\nFormat/Info                    : Audio Coding 3\nMode extension                 : CM (complete main)\nFormat settings, Endianness    : Big\nCodec ID                       : A_AC3\nDuration                       : 2h 41mn\nBit rate mode                  : Constant\nBit rate                       : 448 Kbps\nChannel(s)                     : 6 channels\nChannel positions              : Front: L C R, Side: L R, LFE\nSampling rate                  : 48.0 KHz\nBit depth                      : 16 bits\nCompression mode               : Lossy\nStream size                    : 517 MiB (10%)\nTitle                          : A (Serbin)\nLanguage                       : Russian\nDefault                        : No\nForced                         : No\n\nAudio #3\nID                             : 4\nFormat                         : AC-3\nFormat/Info                    : Audio Coding 3\nMode extension                 : CM (complete main)\nFormat settings, Endianness    : Big\nCodec ID                       : A_AC3\nDuration                       : 2h 41mn\nBit rate mode                  : Constant\nBit rate                       : 448 Kbps\nChannel(s)                     : 6 channels\nChannel positions              : Front: L C R, Side: L R, LFE\nSampling rate                  : 48.0 KHz\nBit depth                      : 16 bits\nCompression mode               : Lossy\nStream size                    : 517 MiB (10%)\nTitle                          : Original\nLanguage                       : English\nDefault                        : No\nForced                         : No\n\nText #1\nID                             : 5\nFormat                         : UTF-8\nCodec ID                       : S_TEXT/UTF8\nCodec ID/Info                  : UTF-8 Plain Text\nTitle                          : RUS\nLanguage                       : Russian\nDefault                        : No\nForced                         : No\n\nText #2\nID                             : 6\nFormat                         : UTF-8\nCodec ID                       : S_TEXT/UTF8\nCodec ID/Info                  : UTF-8 Plain Text\nTitle                          : ENG\nLanguage                       : English\nDefault                        : No\nForced                         : No\n\nText #3\nID                             : 7\nFormat                         : UTF-8\nCodec ID                       : S_TEXT/UTF8\nCodec ID/Info                  : UTF-8 Plain Text\nTitle                          : ENG (SDH)\nLanguage                       : English\nDefault                        : No\nForced                         : No\n\nMenu\n00:00:00.000                   : en:00:00:00.000\n00:07:38.041                   : en:00:07:38.041\n00:18:36.240                   : en:00:18:36.240\n00:27:00.911                   : en:00:27:00.911\n00:36:20.804                   : en:00:36:20.804\n00:46:05.471                   : en:00:46:05.471\n00:53:21.573                   : en:00:53:21.573\n00:59:25.937                   : en:00:59:25.937\n01:07:28.962                   : en:01:07:28.962\n01:17:32.231                   : en:01:17:32.231\n01:28:08.283                   : en:01:28:08.283\n01:34:36.629                   : en:01:34:36.629\n01:45:30.616                   : en:01:45:30.616\n01:54:53.804                   : en:01:54:53.804\n02:08:26.198                   : en:02:08:26.198\n02:16:33.811                   : en:02:16:33.811","torrent":{"xt":"urn:btih:fd23bd5ac270d8ac88b2629f8c4c6f6ad9261ad7","amp;dn":"Almost+Famous+%28Extended+Cut%29+%282000%29+BDRip-AVC+MediaClub","amp;tr":["udp%3A%2F%2Ftracker.openbittorrent.com%3A80","udp%3A%2F%2Fopen.demonii.com%3A1337","udp%3A%2F%2Ftracker.coppersurfer.tk%3A6969","udp%3A%2F%2Fexodus.desync.com%3A6969"],"infoHash":"fd23bd5ac270d8ac88b2629f8c4c6f6ad9261ad7","infoHashBuffer":{"type":"Buffer","data":[253,35,189,90,194,112,216,172,136,178,98,159,140,76,111,106,217,38,26,215]},"announce":[],"urlList":[]}}